<svg width="40" height="55" viewBox="0 0 40 55" fill="none" xmlns="http://www.w3.org/2000/svg">
<path d="M20.0136 15.7103L13.3604 11.7897L20.0136 7.85517L26.6802 11.7897L20.0136 15.7103Z" fill="#4881FF"/>
<path d="M26.6801 19.6448L20.0134 23.5655V15.7103L26.6801 11.7897V19.6448Z" fill="#4971FF"/>
<path d="M20.0136 23.5655L13.3604 19.6448V11.7897L20.0136 15.7103V23.5655Z" fill="#0194FF"/>
<path d="M13.3602 11.7897L6.70703 7.85517L13.3602 3.93451L20.0134 7.85517L13.3602 11.7897Z" fill="#D8D8D8"/>
<path d="M13.3602 19.6448L6.70703 15.7103V7.85517L13.3602 11.7897V19.6448Z" fill="#DDDDDD"/>
<path d="M6.70716 7.85516L0.0539551 3.93451L6.70716 0L13.3604 3.93451L6.70716 7.85516Z" fill="#D8D8D8"/>
<path d="M6.70715 15.7103L0.0539551 11.7897V3.93451L6.70715 7.85517V15.7103Z" fill="#DDDDDD"/>
<path d="M26.6801 11.7897L20.0134 7.85517L26.6801 3.93451L33.3333 7.85517L26.6801 11.7897Z" fill="#D8D8D8"/>
<path d="M33.3334 15.7103L26.6802 19.6448V11.7897L33.3334 7.85517V15.7103Z" fill="#D1D1D1"/>
<path d="M33.3334 7.85516L26.6802 3.93451L33.3334 0L39.9866 3.93451L33.3334 7.85516Z" fill="#D8D8D8"/>
<path d="M39.9864 11.7897L33.3333 15.7103V7.85517L39.9864 3.93451V11.7897Z" fill="#D1D1D1"/>
<path d="M26.6801 27.5L20.0134 31.4345V23.5655L26.6801 19.6448V27.5Z" fill="#D1D1D1"/>
<path d="M20.0136 31.4345L13.3604 27.5V19.6448L20.0136 23.5655V31.4345Z" fill="#DDDDDD"/>
<path d="M26.6801 35.3552L20.0134 39.2897V31.4345L26.6801 27.5V35.3552Z" fill="#D1D1D1"/>
<path d="M20.0136 39.2897L13.3604 35.3552V27.5L20.0136 31.4345V39.2897Z" fill="#DDDDDD"/>
<path d="M26.6801 43.2103L20.0134 47.1448V39.2897L26.6801 35.3552V43.2103Z" fill="#D1D1D1"/>
<path d="M20.0136 47.1448L13.3604 43.2103V35.3552L20.0136 39.2897V47.1448Z" fill="#DDDDDD"/>
<path d="M26.6801 51.0655L20.0134 55V47.1448L26.6801 43.2103V51.0655Z" fill="#D1D1D1"/>
<path d="M20.0136 55L13.3604 51.0655V43.2103L20.0136 47.1448V55Z" fill="#DDDDDD"/>
</svg>
